#!OML:ASF F:\VICON\USERDATA\INSTALL\rory3\rory3.ASF
:FULLY-SPECIFIED
:DEGREES
33
root 0.375904 18.1349 -6.34195 0.481215 -6.07776 -0.121496
lowerback 15.2078 -3.69363 -0.854259
upperback 0.512616 -4.91569 1.5947
thorax -7.75482 -2.32059 3.2399
lowerneck -2.57235 3.24091 -0.141985
upperneck -7.45547 4.20474 -2.04381
head -1.84196 2.13379 -0.647452
rclavicle 3.95085e-014 1.21259e-014
rhumerus -55.3714 2.91406 -81.3052
rradius 95.064
rwrist -8.18059
rhand -33.4487 34.132
rfingers 7.12502
rthumb -6.64743 4.25635
lclavicle 3.95085e-014 1.21259e-014
lhumerus -29.2619 -24.1232 94.6893
lradius 112.214
lwrist 29.0145
lhand -33.2852 6.06361
lfingers 7.12502
lthumb -6.48955 35.9442
rfemur -24.842 5.35057 23.731
rtibia 23.4963
rfoot 5.08001 -0.101802
rtoes -1.27049
lfemur 11.1058 2.37794 -22.9079
ltibia 70.4071
lfoot 27.7358 6.41723
ltoes -5.15971
34
root 0.365765 18.0397 -5.8304 -0.177644 -6.62537 -0.150804
lowerback 16.38 -3.4943 -0.863121
upperback 0.290116 -4.64759 1.6372
thorax -8.6626 -2.16281 3.33841
lowerneck -2.02054 3.17588 -0.344381
upperneck -7.15085 4.12223 -2.02214
head -1.84486 2.09881 -0.613202
rclavicle 6.34123e-014 -1.51076e-014
rhumerus -54.4736 3.63709 -81.6341
rradius 95.6192
rwrist -7.92611
rhand -33.4725 33.4776
rfingers 7.12502
rthumb -6.67033 3.60263
lclavicle 6.34123e-014 -1.51076e-014
lhumerus -31.361 -23.1411 95.395
lradius 111.084
lwrist 28.1538
lhand -33.51 4.64622
lfingers 7.12502
lthumb -6.70654 34.52
rfemur -24.1129 4.51131 24.4823
rtibia 26.3418
rfoot 2.39346 3.34026
rtoes 2.03947
lfemur 10.0339 4.24045 -21.5596
ltibia 75.4401
lfoot 25.4044 6.15652
ltoes -7.01565
35
root 0.35094 17.9347 -5.32813 -0.671003 -7.00946 -0.466402
lowerback 16.95 -3.39034 -0.564515
upperback 0.435037 -4.44582 1.69164
thorax -8.85322 -2.07202 3.21883
lowerneck -1.75084 3.17578 -0.408796
upperneck -7.28108 4.11897 -2.00613
head -1.93587 2.10063 -0.605264
rclavicle -3.8763e-014 1.59028e-015
rhumerus -53.3702 4.71817 -82.2318
rradius 96.8686
rwrist -7.8482
rhand -34.2576 32.5972
rfingers 7.12502
rthumb -7.42819 2.74759
lclavicle -3.8763e-014 1.59028e-015
lhumerus -32.8301 -22.7303 95.8596
lradius 110.418
lwrist 28.232
lhand -33.0409 7.39695
lfingers 7.12502
lthumb -6.2537 37.2846
rfemur -22.8821 4.71743 25.0811
rtibia 29.6661
rfoot -1.47051 3.44089
rtoes 8.91999
lfemur 8.20236 5.86448 -19.7829
ltibia 80.6065
lfoot 23.2978 5.17859
ltoes -10.7889
36
root 0.33557 17.7489 -4.86948 -1.08556 -7.38698 -1.06024
lowerback 17.5654 -3.29816 -0.140159
upperback 0.686468 -4.22192 1.84581
thorax -8.95209 -1.97683 3.12544
lowerneck -1.35153 3.19022 -0.472028
upperneck -7.84273 4.12775 -1.96892
head -2.19184 2.11085 -0.600821
rclavicle -2.45499e-014 -3.97569e-015
rhumerus -52.0126 5.8752 -82.7284
rradius 98.2915
rwrist -8.18237
rhand -35.4037 32.5117
rfingers 7.12502
rthumb -8.53436 2.70415
lclavicle -2.45499e-014 -3.97569e-015
lhumerus -33.7774 -21.9975 95.9802
lradius 109.521
lwrist 28.4672
lhand -32.9809 8.86348
lfingers 7.12502
lthumb -6.1958 38.7529
rfemur -22.3657 5.51139 26.0493
rtibia 32.9239
rfoot -4.55723 2.00014
rtoes 12.6231
lfemur 6.53369 7.54775 -17.4235
ltibia 85.8475
lfoot 22.0921 4.43477
ltoes -5.39602
37
root 0.31234 17.6307 -4.39393 -1.36368 -7.81149 -1.54846
lowerback 17.8247 -3.2117 0.136416
upperback 1.07681 -4.04126 1.97046
thorax -8.68722 -1.90607 3.05837
lowerneck -1.34432 3.23898 -0.561837
upperneck -8.0715 4.18829 -1.97362
head -2.26984 2.14502 -0.592127
rclavicle -1.67973e-014 -5.56597e-015
rhumerus -49.2709 6.41697 -83.2262
rradius 98.6894
rwrist -8.19299
rhand -35.9093 32.8334
rfingers 7.12502
rthumb -9.02229 3.04634
lclavicle -1.67973e-014 -5.56597e-015
lhumerus -34.3698 -20.9292 95.8635
lradius 108.612
lwrist 28.4844
lhand -33.2127 9.37328
lfingers 7.12502
lthumb -6.41954 39.256
rfemur -22.3752 6.30888 27.0759
rtibia 36.1394
rfoot -7.02955 0.76649
rtoes 9.35377
lfemur 4.58839 9.16861 -15.1454
ltibia 90.7477
lfoot 22.2007 3.6542
ltoes 3.00073
38
root 0.289129 17.5265 -3.90241 -1.49526 -7.81289 -1.99409
lowerback 17.7656 -3.22587 0.511571
upperback 1.47218 -3.98161 2.08337
thorax -8.24312 -1.89969 2.92973
lowerneck -1.57874 3.30539 -0.614555
upperneck -8.21211 4.27368 -2.02383
head -2.2739 2.19015 -0.597625
rclavicle 6.30644e-014 2.5842e-015
rhumerus -46.2104 6.76182 -83.6674
rradius 98.9771
rwrist -8.25416
rhand -35.7612 33.2363
rfingers 7.12502
rthumb -8.87941 3.44311
lclavicle 6.30644e-014 2.5842e-015
lhumerus -34.9559 -20.0198 95.7806
lradius 107.771
lwrist 28.523
lhand -33.3845 8.54419
lfingers 7.12502
lthumb -6.58539 38.4218
rfemur -21.9363 7.00305 27.9816
rtibia 38.9533
rfoot -9.65178 -1.18973
rtoes 5.69092
lfemur 2.27 10.2281 -13.1358
ltibia 95.4167
lfoot 21.6169 2.60096
ltoes 5.82858
39
root 0.265304 17.4136 -3.42672 -1.67169 -7.61694 -2.41886
lowerback 17.9396 -3.22695 0.96309
upperback 1.88218 -3.89301 2.12224
thorax -7.92375 -1.87774 2.68718
lowerneck -1.90253 3.33698 -0.303381
upperneck -8.65777 4.29501 -2.29008
head -2.3506 2.19895 -0.734327
rclavicle -2.01269e-014 1.15295e-014
rhumerus -43.489 7.39532 -84.195
rradius 99.8677
rwrist -8.95814
rhand -36.0222 32.5528
rfingers 7.12502
rthumb -9.13125 2.77052
lclavicle -2.01269e-014 1.15295e-014
lhumerus -35.8634 -19.3912 95.8554
lradius 107.275
lwrist 28.7373
lhand -34.0888 7.47837
lfingers 7.12502
lthumb -7.2653 37.3336
rfemur -21.205 7.35032 28.911
rtibia 41.3972
rfoot -12.6863 -3.38754
rtoes -0.798958
lfemur -0.403729 11.1942 -11.076
ltibia 99.8475
lfoot 20.6895 0.862654
ltoes 2.42614
40
root 0.25009 17.2997 -2.96804 -1.6355 -7.69633 -3.25311
lowerback 18.1344 -3.16375 1.90675
upperback 2.28837 -3.61928 2.20765
thorax -7.65133 -1.77662 2.17465
lowerneck -2.57928 3.34169 0.171811
upperneck -9.14271 4.27346 -2.60971
head -2.37405 2.17969 -0.908236
rclavicle -2.77305e-014 4.77083e-015
rhumerus -40.8128 8.08032 -84.8207
rradius 101.1
rwrist -9.94856
rhand -37.7921 31.1368
rfingers 7.12502
rthumb -10.8388 1.4365
lclavicle -2.77305e-014 4.77083e-015
lhumerus -36.8157 -18.7391 95.7454
lradius 106.967
lwrist 28.8181
lhand -34.7026 7.6716
lfingers 7.12502
lthumb -7.85777 37.5056
rfemur -20.3836 7.7547 30.1773
rtibia 43.1663
rfoot -12.7914 -5.26604
rtoes 3.31238
lfemur -3.75565 12.8464 -8.35131
ltibia 104.245
lfoot 20.101 -1.5732
ltoes -2.65845
41
root 0.240411 17.2183 -2.50608 -1.34334 -7.88637 -4.46009
lowerback 18.1059 -3.05768 3.28925
upperback 2.62415 -3.20422 2.41718
thorax -7.34247 -1.61251 1.50413
lowerneck -3.13446 3.28741 0.381741
upperneck -9.57207 4.1786 -2.79555
head -2.41143 2.12868 -0.99703
rclavicle -1.67973e-014 -7.35503e-015
rhumerus -37.8526 8.0791 -84.7362
rradius 101.238
rwrist -9.49155
rhand -35.1628 31.6337
rfingers 7.12502
rthumb -8.30187 1.81681
lclavicle -1.67973e-014 -7.35503e-015
lhumerus -37.7646 -18.1007 95.682
lradius 106.541
lwrist 28.5151
lhand -33.6294 8.77768
lfingers 7.12502
lthumb -6.82183 38.6478
rfemur -19.1458 8.22187 31.6164
rtibia 44.2023
rfoot -13.5714 -7.17955
rtoes 4.15735
lfemur -6.44325 13.7867 -6.17062
ltibia 107.685
lfoot 18.6501 -2.6359
ltoes -6.68472
